<svg xmlns="http://www.w3.org/2000/svg" viewBox="0 0 32 32" fill="none">
  <!-- Background circle with gradient -->
  <defs>
    <linearGradient id="bg" x1="0%" y1="0%" x2="100%" y2="100%">
      <stop offset="0%" style="stop-color:#3b82f6;stop-opacity:1" />
      <stop offset="100%" style="stop-color:#1e40af;stop-opacity:1" />
    </linearGradient>
  </defs>

  <!-- Background -->
  <rect width="32" height="32" rx="6" fill="url(#bg)" />

  <!-- Document icon -->
  <path d="M8 6C8 5.44772 8.44772 5 9 5H19L25 11V25C25 25.5523 24.5523 26 24 26H9C8.44772 26 8 25.5523 8 25V6Z" fill="white" opacity="0.9"/>

  <!-- Markdown "M" symbol -->
  <path d="M11 12H13V18H11V12ZM15 12H17L19 15L21 12H23V18H21V15L19 18H17L15 15V18H13V12Z" fill="#3b82f6" stroke="none"/>

  <!-- Corner fold -->
  <path d="M19 5V11H25L19 5Z" fill="#e5e7eb" opacity="0.7"/>
</svg>
